#!OML:ASF H:\Dans Jumps\Project 1\Capture day 1\Session 1\subject.ASF
:FULLY-SPECIFIED
:DEGREES
241
root 0.581421 16.5848 -15.1289 9.21163 -0.495969 -2.03048
lowerback 8.19007 -0.269482 -0.484346
upperback 4.24645 -0.370123 2.24764
thorax -0.182266 -0.215819 2.62063
lowerneck -15.6192 0.782007 -0.860328
upperneck 19.9158 1.51215 -0.963529
head 8.81007 0.53805 -0.00158794
rclavicle 1.2921e-015 -1.98785e-015
rhumerus -30.5647 -15.1823 -74.2228
rradius 27.8029
rwrist 27.3559
rhand -20.0117 -26.3043
rfingers 7.12502
rthumb 6.3285 -56.1898
lclavicle 1.2921e-015 -1.98785e-015
lhumerus -31.5832 -5.44891 84.2582
lradius 27.0709
lwrist 17.7617
lhand -29.388 -5.97961
lfingers 7.12502
lthumb -2.72644 23.9827
rfemur -33.8362 -3.73774 21.3333
rtibia 47.5461
rfoot -22.5969 -5.65182
rtoes 3.79124
lfemur -34.6594 10.6088 -20.0919
ltibia 46.9174
lfoot -20.6914 6.76498
ltoes -9.05965
242
root 0.581488 16.5318 -15.1537 9.3719 -0.479731 -1.99126
lowerback 8.52317 -0.268833 -0.506575
upperback 4.31429 -0.369733 2.22473
thorax -0.29537 -0.21536 2.61222
lowerneck -15.7292 0.788817 -0.867282
upperneck 19.621 1.52361 -0.978555
head 8.7295 0.543583 -0.00423287
rclavicle -1.76918e-014 1.64991e-014
rhumerus -31.4323 -15.38 -73.733
rradius 27.5901
rwrist 27.6127
rhand -19.8338 -26.2005
rfingers 7.12502
rthumb 6.50023 -56.0808
lclavicle -1.76918e-014 1.64991e-014
lhumerus -32.4343 -5.47946 84.2006
lradius 26.8102
lwrist 18.0042
lhand -29.4856 -6.00553
lfingers 7.12502
lthumb -2.82069 23.9556
rfemur -34.6704 -3.76107 21.3254
rtibia 48.584
rfoot -22.9815 -5.81787
rtoes 3.52837
lfemur -35.4715 10.58 -20.1931
ltibia 47.9133
lfoot -21.1022 7.14796
ltoes -9.78116
243
root 0.5817 16.4773 -15.1779 9.53896 -0.461102 -1.95191
lowerback 8.85015 -0.269865 -0.526564
upperback 4.38594 -0.371692 2.20267
thorax -0.400772 -0.216128 2.60362
lowerneck -15.8415 0.798552 -0.864899
upperneck 19.313 1.53963 -1.00785
head 8.64531 0.550587 -0.0127146
rclavicle 9.34288e-015 -5.96354e-016
rhumerus -32.3144 -15.5758 -73.2279
rradius 27.3666
rwrist 27.915
rhand -19.6619 -26.08
rfingers 7.12502
rthumb 6.66616 -55.9551
lclavicle 9.34288e-015 -5.96354e-016
lhumerus -33.2968 -5.47806 84.1429
lradius 26.5255
lwrist 18.1791
lhand -29.5121 -5.89893
lfingers 7.12502
lthumb -2.84628 24.0618
rfemur -35.5143 -3.78025 21.3178
rtibia 49.6238
rfoot -23.3441 -5.98953
rtoes 3.3111
lfemur -36.2968 10.5438 -20.2966
ltibia 48.9186
lfoot -21.4876 7.5104
ltoes -10.389
244
root 0.582173 16.4216 -15.2014 9.71076 -0.440632 -1.91055
lowerback 9.16931 -0.272215 -0.546626
upperback 4.46365 -0.375705 2.18226
thorax -0.495214 -0.218061 2.59691
lowerneck -15.9593 0.81089 -0.856665
upperneck 18.9945 1.56055 -1.0511
head 8.5589 0.558965 -0.0262624
rclavicle 1.09332e-015 -2.0276e-014
rhumerus -33.2039 -15.776 -72.7038
rradius 27.1272
rwrist 28.2593
rhand -19.4998 -25.944
rfingers 7.12502
rthumb 6.82271 -55.8141
lclavicle 1.09332e-015 -2.0276e-014
lhumerus -34.1641 -5.43722 84.0826
lradius 26.2209
lwrist 18.2747
lhand -29.4418 -5.61182
lfingers 7.12502
lthumb -2.77836 24.3498
rfemur -36.3625 -3.79571 21.3068
rtibia 50.664
rfoot -23.6871 -6.15785
rtoes 3.16383
lfemur -37.1291 10.5004 -20.4045
ltibia 49.9279
lfoot -21.8414 7.8411
ltoes -10.8565
245
root 0.582755 16.3649 -15.2242 9.88958 -0.421854 -1.86765
lowerback 9.48012 -0.273746 -0.568668
upperback 4.54565 -0.379057 2.16377
thorax -0.58035 -0.219813 2.59321
lowerneck -16.0722 0.827218 -0.837722
upperneck 18.6608 1.58766 -1.11289
head 8.46704 0.569307 -0.0470897
rclavicle 2.08724e-015 -6.95746e-015
rhumerus -34.1009 -15.9739 -72.1649
rradius 26.8814
rwrist 28.608
rhand -19.3316 -25.8142
rfingers 7.12502
rthumb 6.98502 -55.679
lclavicle 2.08724e-015 -6.95746e-015
lhumerus -35.0334 -5.36353 84.0227
lradius 25.8897
lwrist 18.3004
lhand -29.3146 -5.27578
lfingers 7.12502
lthumb -2.65551 24.6874
rfemur -37.2144 -3.79957 21.2907
rtibia 51.7029
rfoot -24.0174 -6.3085
rtoes 3.14853
lfemur -37.9707 10.452 -20.5164
ltibia 50.9376
lfoot -22.1596 8.14074
ltoes -11.1765
246
root 0.583416 16.3073 -15.2465 10.0791 -0.39992 -1.82327
lowerback 9.78249 -0.276122 -0.592196
upperback 4.62979 -0.383852 2.14819
thorax -0.658248 -0.2224 2.59349
lowerneck -16.1819 0.847818 -0.81002
upperneck 18.3164 1.62127 -1.19083
head 8.37149 0.581827 -0.0739877
rclavicle -1.39149e-015 -3.97569e-016
rhumerus -35.0013 -16.1724 -71.6105
rradius 26.6346
rwrist 28.9358
rhand -19.1322 -25.6884
rfingers 7.12502
rthumb 7.17751 -55.5467
lclavicle -1.39149e-015 -3.97569e-016
lhumerus -35.8957 -5.24883 83.9615
lradius 25.5193
lwrist 18.2279
lhand -29.1473 -4.92501
lfingers 7.12502
lthumb -2.49395 25.0402
rfemur -38.0724 -3.79483 21.2699
rtibia 52.7372
rfoot -24.3356 -6.44465
rtoes 3.25781
lfemur -38.825 10.3936 -20.6324
ltibia 51.9435
lfoot -22.4423 8.41497
ltoes -11.3693
247
root 0.584013 16.2488 -15.2685 10.2828 -0.376716 -1.78579
lowerback 10.0832 -0.277232 -0.612681
upperback 4.70883 -0.386675 2.13967
thorax -0.74031 -0.223952 2.59925
lowerneck -16.292 0.869025 -0.789834
upperneck 17.9745 1.65634 -1.26477
head 8.27702 0.594998 -0.0980518
rclavicle -2.68359e-015 -2.66371e-014
rhumerus -35.9164 -16.3904 -71.0219
rradius 26.3684
rwrist 29.294
rhand -18.975 -25.4984
rfingers 7.12502
rthumb 7.32932 -55.3514
lclavicle -2.68359e-015 -2.66371e-014
lhumerus -36.7586 -5.09811 83.9055
lradius 25.1111
lwrist 18.0611
lhand -28.9986 -4.68208
lfingers 7.12502
lthumb -2.35034 25.2847
rfemur -38.94 -3.77323 21.2539
rtibia 53.7625
rfoot -24.6421 -6.57703
rtoes 3.45056
lfemur -39.6953 10.328 -20.7418
ltibia 52.9438
lfoot -22.6949 8.66402
ltoes -11.4436
248
root 0.584719 16.1903 -15.2899 10.4957 -0.353306 -1.75129
lowerback 10.3779 -0.276779 -0.630326
upperback 4.79055 -0.387314 2.13447
thorax -0.816103 -0.224477 2.6066
lowerneck -16.4096 0.890985 -0.766843
upperneck 17.6355 1.69309 -1.34661
head 8.18526 0.608366 -0.124916
rclavicle 3.37934e-015 6.36111e-015
rhumerus -36.8378 -16.627 -70.4083
rradius 26.0915
rwrist 29.7035
rhand -18.841 -25.2838
rfingers 7.12502
rthumb 7.4586 -55.1324
lclavicle 3.37934e-015 6.36111e-015
lhumerus -37.6039 -4.91284 83.8471
lradius 24.6583
lwrist 17.7879
lhand -28.8525 -4.49707
lfingers 7.12502
lthumb -2.20924 25.4712
rfemur -39.807 -3.74042 21.2378
rtibia 54.7731
rfoot -24.9413 -6.71228
rtoes 3.67122
lfemur -40.5692 10.2532 -20.8478
ltibia 53.9339
lfoot -22.9328 8.89739
ltoes -11.4464
249
root 0.585442 16.1319 -15.311 10.7225 -0.329782 -1.72685
lowerback 10.6681 -0.273491 -0.638459
upperback 4.86882 -0.383302 2.13366
thorax -0.893043 -0.222558 2.61264
lowerneck -16.5257 0.910934 -0.746763
upperneck 17.2978 1.72666 -1.42513
head 8.09385 0.620476 -0.1505
rclavicle 2.88238e-015 -1.66979e-014
rhumerus -37.7732 -16.8674 -69.7799
rradius 25.8355
rwrist 30.0851
rhand -18.6797 -25.102
rfingers 7.12502
rthumb 7.61436 -54.9449
lclavicle 2.88238e-015 -1.66979e-014
lhumerus -38.4386 -4.69373 83.7834
lradius 24.1725
lwrist 17.4197
lhand -28.723 -4.36523
lfingers 7.12502
lthumb -2.08418 25.6043
rfemur -40.6799 -3.69438 21.2316
rtibia 55.7642
rfoot -25.2285 -6.86949
rtoes 3.83249
lfemur -41.4514 10.1726 -20.9431
ltibia 54.9121
lfoot -23.1621 9.11922
ltoes -11.4166
250
root 0.586197 16.0737 -15.3317 10.9612 -0.305276 -1.71132
lowerback 10.9534 -0.268457 -0.639917
upperback 4.94753 -0.376314 2.13781
thorax -0.966779 -0.219146 2.61968
lowerneck -16.6464 0.928187 -0.731621
upperneck 16.9597 1.75671 -1.5003
head 8.00328 0.631018 -0.174487
rclavicle 3.97569e-015 -5.76476e-015
rhumerus -38.7117 -17.1137 -69.1422
rradius 25.5986
rwrist 30.4359
rhand -18.4884 -24.9885
rfingers 7.12502
rthumb 7.79896 -54.8246
lclavicle 3.97569e-015 -5.76476e-015
lhumerus -39.2578 -4.43675 83.7095
lradius 23.6692
lwrist 16.9744
lhand -28.59 -4.2361
lfingers 7.12502
lthumb -1.9557 25.7347
rfemur -41.5556 -3.64018 21.2354
rtibia 56.7325
rfoot -25.5007 -7.05811
rtoes 3.88418
lfemur -42.3371 10.0845 -21.0274
ltibia 55.875
lfoot -23.389 9.32679
ltoes -11.362
251
root 0.586918 16.0159 -15.3519 11.2121 -0.27702 -1.70544
lowerback 11.2354 -0.261494 -0.633262
upperback 5.02355 -0.365838 2.1468
thorax -1.04141 -0.213907 2.62674
lowerneck -16.7666 0.942931 -0.712553
upperneck 16.6185 1.78288 -1.5807
head 7.91185 0.639587 -0.201251
rclavicle -1.78906e-015 -4.57205e-015
rhumerus -39.6625 -17.344 -68.5077
rradius 25.3971
rwrist 30.7214
rhand -18.2742 -24.9528
rfingers 7.12502
rthumb 8.0057 -54.7812
lclavicle -1.78906e-015 -4.57205e-015
lhumerus -40.0687 -4.14922 83.625
lradius 23.1617
lwrist 16.4779
lhand -28.4425 -4.09933
lfingers 7.12502
lthumb -1.81325 25.8727
rfemur -42.4327 -3.58169 21.2508
rtibia 57.6765
rfoot -25.7632 -7.27246
rtoes 3.84689
lfemur -43.2257 9.98787 -21.0996
ltibia 56.821
lfoot -23.6133 9.52227
ltoes -11.2948
